<?xml version="1.0" standalone="no"?>
<!DOCTYPE svg PUBLIC "-//W3C//DTD SVG 20010904//EN"
 "http://www.w3.org/TR/2001/REC-SVG-20010904/DTD/svg10.dtd">
<svg version="1.0" xmlns="http://www.w3.org/2000/svg"
 width="256.000000pt" height="256.000000pt" viewBox="0 0 256.000000 256.000000"
 preserveAspectRatio="xMidYMid meet">
<metadata>
Created by potrace 1.11, written by Peter Selinger 2001-2013
</metadata>
<g transform="translate(0.000000,256.000000) scale(0.100000,-0.100000)"
fill="#000000" stroke="none">
<path d="M0 2340 l0 -220 100 0 100 0 0 -200 0 -200 100 0 100 0 0 -320 0
-320 100 0 100 0 0 -120 0 -120 100 0 100 0 0 -100 0 -100 480 0 480 0 0 100
0 100 100 0 100 0 0 120 0 120 100 0 100 0 0 320 0 320 100 0 100 0 0 200 0
200 100 0 100 0 0 220 0 220 -200 0 -200 0 0 -100 0 -100 -100 0 -100 0 0
-120 0 -120 -100 0 -100 0 0 120 0 120 -80 0 -80 0 0 100 0 100 -320 0 -320 0
0 -100 0 -100 -80 0 -80 0 0 -120 0 -120 -100 0 -100 0 0 120 0 120 -100 0
-100 0 0 100 0 100 -200 0 -200 0 0 -220z m400 -100 l0 -120 100 0 100 0 0
-100 0 -100 -100 0 -100 0 0 100 0 100 -100 0 -100 0 0 120 0 120 100 0 100 0
0 -120z m1960 0 l0 -120 -100 0 -100 0 0 -100 0 -100 -100 0 -100 0 0 100 0
100 100 0 100 0 0 120 0 120 100 0 100 0 0 -120z m-1200 -420 l0 -100 -100 0
-100 0 0 -120 0 -120 -80 0 -80 0 0 220 0 220 180 0 180 0 0 -100z m600 -120
l0 -220 -80 0 -80 0 0 120 0 120 -100 0 -100 0 0 100 0 100 180 0 180 0 0
-220z m-960 -520 l0 -100 -100 0 -100 0 0 100 0 100 100 0 100 0 0 -100z m600
0 l0 -100 -120 0 -120 0 0 100 0 100 120 0 120 0 0 -100z m560 0 l0 -100 -100
0 -100 0 0 100 0 100 100 0 100 0 0 -100z"/>
<path d="M320 580 c0 -13 -7 -20 -20 -20 -19 0 -20 -7 -20 -240 0 -233 1 -240
20 -240 13 0 20 -7 20 -20 0 -19 7 -20 160 -20 153 0 160 1 160 20 0 13 7 20
20 20 13 0 20 7 20 20 0 13 -7 20 -20 20 -13 0 -20 7 -20 20 0 19 -7 20 -120
20 l-120 0 0 160 0 160 120 0 c113 0 120 1 120 20 0 13 7 20 20 20 13 0 20 7
20 20 0 13 -7 20 -20 20 -13 0 -20 7 -20 20 0 19 -7 20 -160 20 -153 0 -160
-1 -160 -20z"/>
<path d="M880 580 c0 -13 -7 -20 -20 -20 -19 0 -20 -7 -20 -240 0 -233 1 -240
20 -240 13 0 20 -7 20 -20 0 -13 7 -20 20 -20 13 0 20 7 20 20 0 13 7 20 20
20 19 0 20 7 20 100 l0 100 80 0 80 0 0 -100 c0 -93 1 -100 20 -100 13 0 20
-7 20 -20 0 -13 7 -20 20 -20 13 0 20 7 20 20 0 13 7 20 20 20 19 0 20 7 20
240 0 233 -1 240 -20 240 -13 0 -20 7 -20 20 0 13 -7 20 -20 20 -13 0 -20 -7
-20 -20 0 -13 -7 -20 -20 -20 -18 0 -20 -7 -20 -80 l0 -80 -80 0 -80 0 0 80
c0 73 -2 80 -20 80 -13 0 -20 7 -20 20 0 13 -7 20 -20 20 -13 0 -20 -7 -20
-20z"/>
<path d="M1440 580 c0 -13 -7 -20 -20 -20 -17 0 -20 -7 -20 -40 0 -33 3 -40
20 -40 13 0 20 -7 20 -20 0 -13 7 -20 20 -20 17 0 20 -7 20 -40 l0 -40 40 0
40 0 0 -40 0 -40 -40 0 -40 0 0 -40 c0 -33 -3 -40 -20 -40 -13 0 -20 -7 -20
-20 0 -13 -7 -20 -20 -20 -17 0 -20 -7 -20 -40 0 -33 3 -40 20 -40 13 0 20 -7
20 -20 0 -13 7 -20 20 -20 13 0 20 7 20 20 0 17 7 20 40 20 l40 0 0 40 c0 33
3 40 20 40 13 0 20 7 20 20 0 17 7 20 40 20 33 0 40 -3 40 -20 0 -13 7 -20 20
-20 17 0 20 -7 20 -40 l0 -40 40 0 c33 0 40 -3 40 -20 0 -13 7 -20 20 -20 13
0 20 7 20 20 0 13 7 20 20 20 17 0 20 7 20 40 0 33 -3 40 -20 40 -13 0 -20 7
-20 20 0 13 -7 20 -20 20 -17 0 -20 7 -20 40 l0 40 -40 0 -40 0 0 40 0 40 40
0 40 0 0 40 c0 33 3 40 20 40 13 0 20 7 20 20 0 13 7 20 20 20 17 0 20 7 20
40 0 33 -3 40 -20 40 -13 0 -20 7 -20 20 0 13 -7 20 -20 20 -13 0 -20 -7 -20
-20 0 -17 -7 -20 -40 -20 l-40 0 0 -40 c0 -33 -3 -40 -20 -40 -13 0 -20 -7
-20 -20 0 -17 -7 -20 -40 -20 -33 0 -40 3 -40 20 0 13 -7 20 -20 20 -17 0 -20
7 -20 40 l0 40 -40 0 c-33 0 -40 3 -40 20 0 13 -7 20 -20 20 -13 0 -20 -7 -20
-20z"/>
<path d="M2040 580 c0 -13 -7 -20 -20 -20 -19 0 -20 -7 -20 -240 0 -233 1
-240 20 -240 13 0 20 -7 20 -20 0 -19 7 -20 160 -20 153 0 160 1 160 20 0 13
7 20 20 20 13 0 20 7 20 20 0 13 -7 20 -20 20 -13 0 -20 7 -20 20 0 19 -7 20
-120 20 l-120 0 0 160 0 160 120 0 c113 0 120 1 120 20 0 13 7 20 20 20 13 0
20 7 20 20 0 13 -7 20 -20 20 -13 0 -20 7 -20 20 0 19 -7 20 -160 20 -153 0
-160 -1 -160 -20z"/>
</g>
</svg>
