<?xml version="1.0" standalone="no"?>
<!DOCTYPE svg PUBLIC "-//W3C//DTD SVG 20010904//EN"
 "http://www.w3.org/TR/2001/REC-SVG-20010904/DTD/svg10.dtd">
<svg version="1.0" xmlns="http://www.w3.org/2000/svg"
 width="256.000000pt" height="256.000000pt" viewBox="0 0 256.000000 256.000000"
 preserveAspectRatio="xMidYMid meet">
<metadata>
Created by potrace 1.11, written by Peter Selinger 2001-2013
</metadata>
<g transform="translate(0.000000,256.000000) scale(0.100000,-0.100000)"
fill="#000000" stroke="none">
<path d="M920 2100 l0 -220 300 0 300 0 0 220 0 220 -300 0 -300 0 0 -220z
m80 60 c0 -113 1 -120 20 -120 18 0 20 -7 20 -60 l0 -60 -40 0 -40 0 0 180 c0
173 1 180 20 180 19 0 20 -7 20 -120z m160 0 c0 -113 1 -120 20 -120 18 0 20
-7 20 -60 l0 -60 -60 0 -60 0 0 60 c0 53 2 60 20 60 19 0 20 7 20 120 0 113 1
120 20 120 19 0 20 -7 20 -120z m160 0 c0 -113 1 -120 20 -120 18 0 20 -7 20
-60 l0 -60 -60 0 -60 0 0 60 c0 53 2 60 20 60 19 0 20 7 20 120 0 113 1 120
20 120 19 0 20 -7 20 -120z m160 -60 l0 -180 -40 0 -40 0 0 60 c0 53 2 60 20
60 19 0 20 7 20 120 0 113 1 120 20 120 19 0 20 -7 20 -180z"/>
<path d="M1640 1580 c0 -19 -7 -20 -120 -20 -113 0 -120 -1 -120 -20 0 -19 -7
-20 -120 -20 -113 0 -120 -1 -120 -20 0 -19 -7 -20 -120 -20 -113 0 -120 -1
-120 -20 0 -19 -7 -20 -120 -20 -113 0 -120 -1 -120 -20 0 -19 -7 -20 -120
-20 -113 0 -120 -1 -120 -20 0 -18 -7 -20 -80 -20 l-80 0 0 -400 0 -400 40 0
c33 0 40 -3 40 -20 0 -17 7 -20 40 -20 33 0 40 -3 40 -20 0 -17 7 -20 40 -20
33 0 40 -3 40 -20 0 -17 7 -20 40 -20 33 0 40 -3 40 -20 0 -18 7 -20 80 -20
73 0 80 2 80 20 0 19 7 20 120 20 113 0 120 1 120 20 0 19 7 20 120 20 113 0
120 1 120 20 0 19 7 20 120 20 113 0 120 1 120 20 0 19 7 20 120 20 113 0 120
1 120 20 0 19 7 20 120 20 113 0 120 1 120 20 0 18 7 20 80 20 l80 0 0 420 0
420 -40 0 c-33 0 -40 3 -40 20 0 18 -7 20 -60 20 -53 0 -60 2 -60 20 0 18 -7
20 -60 20 -53 0 -60 2 -60 20 0 18 -7 20 -80 20 -73 0 -80 -2 -80 -20z m440
-460 l0 -320 -100 0 c-93 0 -100 -1 -100 -20 0 -19 -7 -20 -140 -20 -133 0
-140 -1 -140 -20 0 -19 -7 -20 -100 -20 -93 0 -100 -1 -100 -20 0 -18 -7 -20
-80 -20 -73 0 -80 -2 -80 -20 0 -19 -7 -20 -120 -20 -113 0 -120 -1 -120 -20
0 -19 -7 -20 -140 -20 l-140 0 0 300 c0 293 0 300 20 300 13 0 20 7 20 20 0
19 7 20 120 20 113 0 120 1 120 20 0 19 7 20 120 20 113 0 120 1 120 20 0 19
7 20 120 20 113 0 120 1 120 20 0 19 7 20 120 20 113 0 120 1 120 20 0 19 7
20 120 20 113 0 120 1 120 20 0 18 7 20 60 20 l60 0 0 -320z m-1640 140 c0
-17 7 -20 40 -20 33 0 40 -3 40 -20 0 -17 7 -20 40 -20 l40 0 0 -320 0 -320
-40 0 c-33 0 -40 3 -40 20 0 13 -7 20 -20 20 -13 0 -20 7 -20 20 0 17 -7 20
-40 20 l-40 0 0 80 c0 73 2 80 20 80 13 0 20 -7 20 -20 0 -17 7 -20 40 -20 33
0 40 3 40 20 0 13 7 20 20 20 19 0 20 7 20 160 0 153 -1 160 -20 160 -19 0
-20 -7 -20 -100 l0 -100 -40 0 c-33 0 -40 -3 -40 -20 0 -13 -7 -20 -20 -20
-19 0 -20 7 -20 200 0 193 1 200 20 200 13 0 20 -7 20 -20z"/>
<path d="M1360 1040 l0 -240 140 0 c133 0 140 1 140 20 0 13 7 20 20 20 18 0
20 7 20 60 0 53 -2 60 -20 60 -13 0 -20 7 -20 20 0 18 -7 20 -80 20 l-80 0 0
140 0 140 -60 0 -60 0 0 -240z"/>
<path d="M920 920 l0 -240 60 0 60 0 0 120 0 120 80 0 c73 0 80 2 80 20 0 13
7 20 20 20 18 0 20 7 20 80 0 73 -2 80 -20 80 -13 0 -20 7 -20 20 0 19 -7 20
-140 20 l-140 0 0 -240z"/>
</g>
</svg>
