<?xml version="1.0" standalone="no"?>
<!DOCTYPE svg PUBLIC "-//W3C//DTD SVG 20010904//EN"
 "http://www.w3.org/TR/2001/REC-SVG-20010904/DTD/svg10.dtd">
<svg version="1.0" xmlns="http://www.w3.org/2000/svg"
 width="440.000000pt" height="440.000000pt" viewBox="0 0 440.000000 440.000000"
 preserveAspectRatio="xMidYMid meet">
<metadata>
Created by potrace 1.11, written by Peter Selinger 2001-2013
</metadata>
<g transform="translate(0.000000,440.000000) scale(0.100000,-0.100000)"
fill="#000000" stroke="none">
<path d="M2420 3539 c-42 -23 -551 -269 -556 -269 -2 0 -62 -29 -135 -65 -72
-36 -137 -65 -144 -65 -33 0 -37 -28 -36 -240 l2 -210 -63 -29 c-35 -16 -148
-70 -253 -121 -104 -50 -203 -98 -220 -106 l-30 -14 3 -657 c1 -361 4 -659 6
-660 2 -2 15 -6 28 -8 13 -3 69 -16 124 -30 149 -39 458 -117 469 -119 6 -1
19 -5 30 -9 11 -3 31 -8 45 -11 14 -3 103 -25 199 -49 l174 -44 86 42 c88 44
236 115 396 190 149 70 355 169 738 352 l137 66 1 631 c1 347 2 643 3 658 2
28 -3 32 -54 42 -14 3 -149 37 -300 75 -151 39 -278 71 -282 71 -5 0 -8 124
-8 275 0 262 -1 276 -20 295 -23 23 -45 25 -80 7 -21 -11 -27 -10 -42 5 -22
22 -44 23 -80 4 -23 -12 -29 -12 -45 0 -24 18 -51 16 -93 -7z"/>
</g>
</svg>
